<mxfile host="65bd71144e" pages="2">
    <diagram id="xqotitL8uuE5FluPYOoE" name="Darstellungselement">
        <mxGraphModel dx="897" dy="950" grid="0" gridSize="10" guides="1" tooltips="1" connect="1" arrows="1" fold="1" page="1" pageScale="1" pageWidth="827" pageHeight="1169" math="0" shadow="0">
            <root>
                <mxCell id="0"/>
                <mxCell id="1" parent="0"/>
                <mxCell id="5x1QvNT2mw9-kYvGkyA7-8" value="&lt;span style=&quot;&quot;&gt;«device»&lt;/span&gt;&lt;br&gt;Gerätebezeichnung" style="verticalAlign=top;align=center;shape=cube;size=10;direction=south;fontStyle=0;html=1;boundedLbl=1;spacingLeft=5;strokeColor=#b85450;strokeWidth=1;fillColor=#f8cecc;" parent="1" vertex="1">
                    <mxGeometry x="467" y="155" width="235" height="327" as="geometry"/>
                </mxCell>
                <mxCell id="5x1QvNT2mw9-kYvGkyA7-15" style="edgeStyle=orthogonalEdgeStyle;rounded=0;orthogonalLoop=1;jettySize=auto;html=1;entryX=0;entryY=0;entryDx=70;entryDy=0;entryPerimeter=0;endArrow=open;endFill=0;" parent="5x1QvNT2mw9-kYvGkyA7-8" source="5x1QvNT2mw9-kYvGkyA7-9" target="5x1QvNT2mw9-kYvGkyA7-13" edge="1">
                    <mxGeometry relative="1" as="geometry"/>
                </mxCell>
                <mxCell id="5x1QvNT2mw9-kYvGkyA7-9" value="«executionEnvironment»&lt;br&gt;Umgebungsbezeichnung" style="verticalAlign=top;align=center;shape=cube;size=10;direction=south;html=1;boundedLbl=1;spacingLeft=5;strokeColor=#d79b00;strokeWidth=1;fillColor=#ffe6cc;" parent="5x1QvNT2mw9-kYvGkyA7-8" vertex="1">
                    <mxGeometry width="192" height="242" relative="1" as="geometry">
                        <mxPoint x="22" y="65" as="offset"/>
                    </mxGeometry>
                </mxCell>
                <mxCell id="5x1QvNT2mw9-kYvGkyA7-12" style="edgeStyle=orthogonalEdgeStyle;rounded=0;orthogonalLoop=1;jettySize=auto;html=1;entryX=0.5;entryY=0;entryDx=0;entryDy=0;endArrow=open;endFill=0;" parent="5x1QvNT2mw9-kYvGkyA7-8" source="5x1QvNT2mw9-kYvGkyA7-3" target="5x1QvNT2mw9-kYvGkyA7-7" edge="1">
                    <mxGeometry relative="1" as="geometry"/>
                </mxCell>
                <mxCell id="5x1QvNT2mw9-kYvGkyA7-3" value="«service»&lt;br&gt;Bezeichnung" style="html=1;dropTarget=0;" parent="5x1QvNT2mw9-kYvGkyA7-8" vertex="1">
                    <mxGeometry x="44" y="128.2748780487805" width="142" height="70.45121951219512" as="geometry"/>
                </mxCell>
                <mxCell id="5x1QvNT2mw9-kYvGkyA7-4" value="" style="shape=module;jettyWidth=8;jettyHeight=4;" parent="5x1QvNT2mw9-kYvGkyA7-3" vertex="1">
                    <mxGeometry x="1" width="20" height="20" relative="1" as="geometry">
                        <mxPoint x="-27" y="7" as="offset"/>
                    </mxGeometry>
                </mxCell>
                <mxCell id="5x1QvNT2mw9-kYvGkyA7-11" value="" style="group" parent="5x1QvNT2mw9-kYvGkyA7-8" vertex="1" connectable="0">
                    <mxGeometry x="60" y="231" width="110" height="50" as="geometry"/>
                </mxCell>
                <mxCell id="5x1QvNT2mw9-kYvGkyA7-7" value="Bezeichnung" style="html=1;strokeColor=#000000;" parent="5x1QvNT2mw9-kYvGkyA7-11" vertex="1">
                    <mxGeometry width="110" height="50" as="geometry"/>
                </mxCell>
                <mxCell id="5x1QvNT2mw9-kYvGkyA7-6" value="" style="html=1;verticalLabelPosition=bottom;align=center;labelBackgroundColor=#ffffff;verticalAlign=top;strokeWidth=1;strokeColor=#000000;shadow=0;dashed=0;shape=mxgraph.ios7.icons.document;" parent="5x1QvNT2mw9-kYvGkyA7-11" vertex="1">
                    <mxGeometry x="94" y="5" width="10.33" height="15.5" as="geometry"/>
                </mxCell>
                <mxCell id="5x1QvNT2mw9-kYvGkyA7-13" value="«device»&lt;br&gt;Gerätebezeichnung" style="verticalAlign=top;align=center;shape=cube;size=10;direction=south;html=1;boundedLbl=1;spacingLeft=5;strokeColor=#b85450;strokeWidth=1;fillColor=#f8cecc;" parent="1" vertex="1">
                    <mxGeometry x="178" y="271" width="192" height="187" as="geometry"/>
                </mxCell>
                <mxCell id="5x1QvNT2mw9-kYvGkyA7-14" value="" style="shape=folder;fontStyle=1;spacingTop=10;tabWidth=82;tabHeight=18;tabPosition=left;html=1;strokeColor=#666666;strokeWidth=1;align=center;fillColor=#f5f5f5;fontColor=#333333;" parent="1" vertex="1">
                    <mxGeometry x="194" y="348" width="126.5" height="100" as="geometry"/>
                </mxCell>
                <mxCell id="5x1QvNT2mw9-kYvGkyA7-16" value="Bezeichnung" style="text;html=1;align=center;verticalAlign=middle;resizable=0;points=[];autosize=1;strokeColor=none;fillColor=none;" parent="1" vertex="1">
                    <mxGeometry x="196" y="348" width="79" height="18" as="geometry"/>
                </mxCell>
                <mxCell id="5x1QvNT2mw9-kYvGkyA7-26" value="" style="group" parent="1" vertex="1" connectable="0">
                    <mxGeometry x="202.25" y="386" width="110" height="50" as="geometry"/>
                </mxCell>
                <mxCell id="5x1QvNT2mw9-kYvGkyA7-27" value="Bezeichnung" style="html=1;strokeColor=#000000;" parent="5x1QvNT2mw9-kYvGkyA7-26" vertex="1">
                    <mxGeometry width="110" height="50" as="geometry"/>
                </mxCell>
                <mxCell id="5x1QvNT2mw9-kYvGkyA7-32" value="&lt;span style=&quot;color: rgb(0 , 0 , 0) ; font-family: &amp;#34;helvetica&amp;#34; ; font-size: 12px ; font-style: normal ; font-weight: 400 ; letter-spacing: normal ; text-align: center ; text-indent: 0px ; text-transform: none ; word-spacing: 0px ; background-color: rgb(248 , 249 , 250) ; display: inline ; float: none&quot;&gt;«artifact»&lt;/span&gt;" style="text;whiteSpace=wrap;html=1;" parent="5x1QvNT2mw9-kYvGkyA7-26" vertex="1">
                    <mxGeometry x="29.002068965517196" y="0.9986206896551266" width="73" height="28" as="geometry"/>
                </mxCell>
                <mxCell id="5x1QvNT2mw9-kYvGkyA7-33" value="Beides sind Artefakte!" style="shape=note;size=15;align=left;spacingLeft=10;html=1;whiteSpace=wrap;strokeColor=#d6b656;strokeWidth=1;fillColor=#fff2cc;" parent="1" vertex="1">
                    <mxGeometry x="304" y="505" width="150" height="40" as="geometry"/>
                </mxCell>
                <mxCell id="5x1QvNT2mw9-kYvGkyA7-34" value="" style="edgeStyle=none;endArrow=none;exitX=0.4;exitY=0;dashed=1;html=1;rounded=0;entryX=0.75;entryY=1;entryDx=0;entryDy=0;" parent="1" source="5x1QvNT2mw9-kYvGkyA7-33" target="5x1QvNT2mw9-kYvGkyA7-27" edge="1">
                    <mxGeometry x="1" relative="1" as="geometry">
                        <mxPoint x="353" y="519" as="targetPoint"/>
                    </mxGeometry>
                </mxCell>
                <mxCell id="5x1QvNT2mw9-kYvGkyA7-35" value="" style="edgeStyle=none;endArrow=none;exitX=0.8;exitY=0;dashed=1;html=1;rounded=0;" parent="1" source="5x1QvNT2mw9-kYvGkyA7-33" target="5x1QvNT2mw9-kYvGkyA7-7" edge="1">
                    <mxGeometry x="1" relative="1" as="geometry">
                        <mxPoint x="513" y="519" as="targetPoint"/>
                    </mxGeometry>
                </mxCell>
            </root>
        </mxGraphModel>
    </diagram>
    <diagram id="DHCUXRkkX-kQIrrurq6N" name="Beispiel">
        <mxGraphModel dx="897" dy="950" grid="0" gridSize="10" guides="1" tooltips="1" connect="1" arrows="1" fold="1" page="1" pageScale="1" pageWidth="827" pageHeight="1169" math="0" shadow="0">
            <root>
                <mxCell id="rqMFX54rcnVw5PcIJOyL-0"/>
                <mxCell id="rqMFX54rcnVw5PcIJOyL-1" parent="rqMFX54rcnVw5PcIJOyL-0"/>
                <mxCell id="rqMFX54rcnVw5PcIJOyL-2" value="&lt;span&gt;«device»&lt;/span&gt;&lt;br&gt;Build Server" style="verticalAlign=top;align=center;shape=cube;size=10;direction=south;fontStyle=0;html=1;boundedLbl=1;spacingLeft=5;strokeColor=#b85450;strokeWidth=1;fillColor=#f8cecc;" parent="rqMFX54rcnVw5PcIJOyL-1" vertex="1">
                    <mxGeometry x="467" y="155" width="235" height="327" as="geometry"/>
                </mxCell>
                <mxCell id="rqMFX54rcnVw5PcIJOyL-3" value="«executionEnvironment»&lt;br&gt;Windows Server 2019" style="verticalAlign=top;align=center;shape=cube;size=10;direction=south;html=1;boundedLbl=1;spacingLeft=5;strokeColor=#d79b00;strokeWidth=1;fillColor=#ffe6cc;" parent="rqMFX54rcnVw5PcIJOyL-2" vertex="1">
                    <mxGeometry width="192" height="242" relative="1" as="geometry">
                        <mxPoint x="22" y="65" as="offset"/>
                    </mxGeometry>
                </mxCell>
                <mxCell id="rqMFX54rcnVw5PcIJOyL-4" style="edgeStyle=orthogonalEdgeStyle;rounded=0;orthogonalLoop=1;jettySize=auto;html=1;entryX=0.5;entryY=0;entryDx=0;entryDy=0;endArrow=open;endFill=0;" parent="rqMFX54rcnVw5PcIJOyL-2" source="rqMFX54rcnVw5PcIJOyL-5" target="rqMFX54rcnVw5PcIJOyL-8" edge="1">
                    <mxGeometry relative="1" as="geometry"/>
                </mxCell>
                <mxCell id="rqMFX54rcnVw5PcIJOyL-5" value="«service»&lt;br&gt;MS Build" style="html=1;dropTarget=0;" parent="rqMFX54rcnVw5PcIJOyL-2" vertex="1">
                    <mxGeometry x="44" y="128.2748780487805" width="142" height="70.45121951219512" as="geometry"/>
                </mxCell>
                <mxCell id="rqMFX54rcnVw5PcIJOyL-6" value="" style="shape=module;jettyWidth=8;jettyHeight=4;" parent="rqMFX54rcnVw5PcIJOyL-5" vertex="1">
                    <mxGeometry x="1" width="20" height="20" relative="1" as="geometry">
                        <mxPoint x="-27" y="7" as="offset"/>
                    </mxGeometry>
                </mxCell>
                <mxCell id="rqMFX54rcnVw5PcIJOyL-7" value="" style="group" parent="rqMFX54rcnVw5PcIJOyL-2" vertex="1" connectable="0">
                    <mxGeometry x="60" y="231" width="110" height="50" as="geometry"/>
                </mxCell>
                <mxCell id="rqMFX54rcnVw5PcIJOyL-8" value="Source Code" style="html=1;strokeColor=#000000;" parent="rqMFX54rcnVw5PcIJOyL-7" vertex="1">
                    <mxGeometry width="110" height="50" as="geometry"/>
                </mxCell>
                <mxCell id="rqMFX54rcnVw5PcIJOyL-9" value="" style="html=1;verticalLabelPosition=bottom;align=center;labelBackgroundColor=#ffffff;verticalAlign=top;strokeWidth=1;strokeColor=#000000;shadow=0;dashed=0;shape=mxgraph.ios7.icons.document;" parent="rqMFX54rcnVw5PcIJOyL-7" vertex="1">
                    <mxGeometry x="94" y="5" width="10.33" height="15.5" as="geometry"/>
                </mxCell>
                <mxCell id="rqMFX54rcnVw5PcIJOyL-10" value="«device»&lt;br&gt;Deployment Server" style="verticalAlign=top;align=center;shape=cube;size=10;direction=south;html=1;boundedLbl=1;spacingLeft=5;strokeColor=#b85450;strokeWidth=1;fillColor=#f8cecc;" parent="rqMFX54rcnVw5PcIJOyL-1" vertex="1">
                    <mxGeometry x="189" y="249" width="182" height="187" as="geometry"/>
                </mxCell>
                <mxCell id="rqMFX54rcnVw5PcIJOyL-11" style="edgeStyle=orthogonalEdgeStyle;rounded=0;orthogonalLoop=1;jettySize=auto;html=1;entryX=0;entryY=0;entryDx=70;entryDy=0;entryPerimeter=0;endArrow=open;endFill=0;" parent="rqMFX54rcnVw5PcIJOyL-1" source="rqMFX54rcnVw5PcIJOyL-5" target="rqMFX54rcnVw5PcIJOyL-10" edge="1">
                    <mxGeometry relative="1" as="geometry"/>
                </mxCell>
                <mxCell id="rqMFX54rcnVw5PcIJOyL-12" value="" style="shape=folder;fontStyle=1;spacingTop=10;tabWidth=82;tabHeight=18;tabPosition=left;html=1;strokeColor=#666666;strokeWidth=1;align=center;fillColor=#f5f5f5;fontColor=#333333;" parent="rqMFX54rcnVw5PcIJOyL-1" vertex="1">
                    <mxGeometry x="209" y="320" width="126.5" height="100" as="geometry"/>
                </mxCell>
                <mxCell id="rqMFX54rcnVw5PcIJOyL-13" value="public\install\" style="text;html=1;align=center;verticalAlign=middle;resizable=0;points=[];autosize=1;strokeColor=none;fillColor=none;" parent="rqMFX54rcnVw5PcIJOyL-1" vertex="1">
                    <mxGeometry x="211" y="320" width="79" height="18" as="geometry"/>
                </mxCell>
                <mxCell id="rqMFX54rcnVw5PcIJOyL-14" value="" style="group" parent="rqMFX54rcnVw5PcIJOyL-1" vertex="1" connectable="0">
                    <mxGeometry x="217.25" y="358" width="110" height="50" as="geometry"/>
                </mxCell>
                <mxCell id="rqMFX54rcnVw5PcIJOyL-15" value="install.exe" style="html=1;strokeColor=#000000;" parent="rqMFX54rcnVw5PcIJOyL-14" vertex="1">
                    <mxGeometry width="110" height="50" as="geometry"/>
                </mxCell>
                <mxCell id="rqMFX54rcnVw5PcIJOyL-16" value="&lt;span style=&quot;color: rgb(0 , 0 , 0) ; font-family: &amp;#34;helvetica&amp;#34; ; font-size: 12px ; font-style: normal ; font-weight: 400 ; letter-spacing: normal ; text-align: center ; text-indent: 0px ; text-transform: none ; word-spacing: 0px ; background-color: rgb(248 , 249 , 250) ; display: inline ; float: none&quot;&gt;«artifact»&lt;/span&gt;" style="text;whiteSpace=wrap;html=1;" parent="rqMFX54rcnVw5PcIJOyL-14" vertex="1">
                    <mxGeometry x="29.002068965517196" y="0.9986206896551266" width="73" height="28" as="geometry"/>
                </mxCell>
                <mxCell id="rqMFX54rcnVw5PcIJOyL-20" value="&lt;span style=&quot;font-family: &amp;#34;helvetica&amp;#34;&quot;&gt;«deploy»&lt;/span&gt;" style="text;html=1;align=center;verticalAlign=middle;resizable=0;points=[];autosize=1;strokeColor=none;fillColor=none;" parent="rqMFX54rcnVw5PcIJOyL-1" vertex="1">
                    <mxGeometry x="395" y="317" width="59" height="18" as="geometry"/>
                </mxCell>
            </root>
        </mxGraphModel>
    </diagram>
</mxfile>